<svg width="32" height="32" viewBox="0 0 32 32" fill="none" xmlns="http://www.w3.org/2000/svg">
<rect x="1.6" y="1.6" width="28.8" height="28.8" rx="14.4" stroke="#111019" stroke-width="3.2"/>
<g clip-path="url(#clip0_1970_626)">
<path d="M15.4667 25.6C14.2434 25.6 13.1709 25.3696 12.2492 24.9088C11.3275 24.431 10.607 23.7739 10.0875 22.9376C9.58474 22.0843 9.33337 21.0944 9.33337 19.968V12.032C9.33337 10.8886 9.58474 9.89869 10.0875 9.06242C10.607 8.22616 11.3275 7.57762 12.2492 7.11682C13.1709 6.63896 14.2434 6.40002 15.4667 6.40002C16.7068 6.40002 17.7793 6.63896 18.6842 7.11682C19.6059 7.57762 20.3181 8.22616 20.8208 9.06242C21.3403 9.89869 21.6 10.8886 21.6 12.032H17.8296C17.8296 11.2811 17.6201 10.7094 17.2011 10.3168C16.7989 9.92429 16.2208 9.72802 15.4667 9.72802C14.7126 9.72802 14.1261 9.92429 13.7071 10.3168C13.305 10.7094 13.1039 11.2811 13.1039 12.032V19.968C13.1039 20.7019 13.305 21.2736 13.7071 21.6832C14.1261 22.0758 14.7126 22.272 15.4667 22.272C16.2208 22.272 16.7989 22.0758 17.2011 21.6832C17.6201 21.2736 17.8296 20.7019 17.8296 19.968H21.6C21.6 21.0944 21.3403 22.0843 20.8208 22.9376C20.3181 23.7739 19.6059 24.431 18.6842 24.9088C17.7793 25.3696 16.7068 25.6 15.4667 25.6Z" fill="#111019"/>
<path d="M22.2479 15.1999L21.5999 13.0665L20.9519 15.1999H18.9332L20.5812 16.3759L19.9546 18.3999L21.5999 17.1492L23.2479 18.3999L22.6212 16.3759L24.2666 15.1999H22.2479Z" fill="#111019"/>
</g>
<defs>
<clipPath id="clip0_1970_626">
<rect width="19.2" height="19.2" fill="white" transform="translate(6.40002 6.40002)"/>
</clipPath>
</defs>
</svg>
