<svg width="32" height="32" viewBox="0 0 32 32" fill="none" xmlns="http://www.w3.org/2000/svg">
<rect x="1.6" y="1.6" width="28.8" height="28.8" rx="14.4" stroke="white" stroke-width="3.2"/>
<g clip-path="url(#clip0_1970_290)">
<path d="M15.4666 25.6C14.2433 25.6 13.1708 25.3696 12.2492 24.9088C11.3275 24.431 10.6069 23.7739 10.0874 22.9376C9.58468 22.0843 9.33331 21.0944 9.33331 19.968V12.032C9.33331 10.8886 9.58468 9.89869 10.0874 9.06242C10.6069 8.22616 11.3275 7.57762 12.2492 7.11682C13.1708 6.63896 14.2433 6.40002 15.4666 6.40002C16.7067 6.40002 17.7792 6.63896 18.6841 7.11682C19.6058 7.57762 20.318 8.22616 20.8207 9.06242C21.3402 9.89869 21.6 10.8886 21.6 12.032H17.8295C17.8295 11.2811 17.62 10.7094 17.2011 10.3168C16.7989 9.92429 16.2207 9.72802 15.4666 9.72802C14.7125 9.72802 14.126 9.92429 13.7071 10.3168C13.3049 10.7094 13.1038 11.2811 13.1038 12.032V19.968C13.1038 20.7019 13.3049 21.2736 13.7071 21.6832C14.126 22.0758 14.7125 22.272 15.4666 22.272C16.2207 22.272 16.7989 22.0758 17.2011 21.6832C17.62 21.2736 17.8295 20.7019 17.8295 19.968H21.6C21.6 21.0944 21.3402 22.0843 20.8207 22.9376C20.318 23.7739 19.6058 24.431 18.6841 24.9088C17.7792 25.3696 16.7067 25.6 15.4666 25.6Z" fill="white"/>
<path d="M22.2478 15.1999L21.5998 13.0665L20.9518 15.1999H18.9331L20.5811 16.3759L19.9545 18.3999L21.5998 17.1492L23.2478 18.3999L22.6211 16.3759L24.2665 15.1999H22.2478Z" fill="white"/>
</g>
<defs>
<clipPath id="clip0_1970_290">
<rect width="19.2" height="19.2" fill="white" transform="translate(6.39999 6.40002)"/>
</clipPath>
</defs>
</svg>
